<svg width="279" height="160" viewBox="0 0 279 160" fill="none" xmlns="http://www.w3.org/2000/svg">
<rect x="0.5" y="0.5" width="278" height="159" rx="7.5" stroke="#27C732" stroke-dasharray="3 3"/>
<rect x="14.5" y="15.5" width="250" height="128" rx="7.5" fill="#F8F8F8" stroke="#EDEDF0"/>
<rect x="58" y="52" width="146" height="6" fill="white"/>
<rect x="58" y="66" width="146" height="6" fill="white"/>
<rect x="58" y="80" width="146" height="6" fill="white"/>
<rect x="58" y="94" width="146" height="6" fill="white"/>
<rect x="87" y="108" width="106" height="18" fill="#C9CAD3"/>
<rect x="180" y="22" width="3" height="18" fill="#C4C4C4"/>
<rect x="203" y="22" width="3" height="18" fill="#C4C4C4"/>
<rect x="226" y="22" width="3" height="18" fill="#C4C4C4"/>
<rect x="232" y="22" width="3" height="18" fill="#C4C4C4"/>
<rect x="250" y="22" width="3" height="18" fill="#C4C4C4"/>
<rect x="191" y="22" width="1" height="18" fill="#C4C4C4"/>
<rect x="197" y="22" width="1" height="18" fill="#C4C4C4"/>
<rect x="214" y="22" width="1" height="18" fill="#C4C4C4"/>
<rect x="238" y="22" width="1" height="18" fill="#C4C4C4"/>
<rect x="218" y="22" width="1" height="18" fill="#C4C4C4"/>
<rect x="242" y="22" width="1" height="18" fill="#C4C4C4"/>
<rect x="256" y="22" width="1" height="18" fill="#C4C4C4"/>
</svg>
