<svg width="38" height="38" viewBox="0 0 38 38" fill="none" xmlns="http://www.w3.org/2000/svg">
<path d="M23.7503 22.1668V17.4168H28.5003V14.2502L34.8337 19.7918L28.5003 25.3335V22.1668H23.7503ZM22.167 12.1918V14.2502H3.16699V12.1918L12.667 6.3335L22.167 12.1918ZM11.0837 15.8335H14.2503V23.7502H11.0837V15.8335ZM4.75033 15.8335H7.91699V23.7502H4.75033V15.8335ZM20.5837 15.8335V19.7918L17.417 22.6418V15.8335H20.5837ZM14.4087 25.3335L13.4587 26.1252L16.1503 28.5002H3.16699V25.3335H14.4087ZM26.917 23.7502V28.5002H22.167V31.6668L15.8337 26.1252L22.167 20.5835V23.7502H26.917Z" fill="#0F1F93"/>
</svg>
