<svg width="32" height="32" viewBox="0 0 32 32" fill="none" xmlns="http://www.w3.org/2000/svg">
<path d="M26.6667 2.6665C27.0203 2.6665 27.3594 2.80698 27.6095 3.05703C27.8595 3.30708 28 3.64622 28 3.99984V9.00917L25.3333 11.6758V5.33317H6.66667V26.6665H25.3333V22.9892L28 20.3225V27.9998C28 28.3535 27.8595 28.6926 27.6095 28.9426C27.3594 29.1927 27.0203 29.3332 26.6667 29.3332H5.33333C4.97971 29.3332 4.64057 29.1927 4.39052 28.9426C4.14048 28.6926 4 28.3535 4 27.9998V3.99984C4 3.64622 4.14048 3.30708 4.39052 3.05703C4.64057 2.80698 4.97971 2.6665 5.33333 2.6665H26.6667ZM29.0373 11.7438L30.9227 13.6292L20.552 23.9998L18.664 23.9972L18.6667 22.1145L29.0373 11.7438ZM17.3333 15.9998V18.6665H10.6667V15.9998H17.3333ZM21.3333 10.6665V13.3332H10.6667V10.6665H21.3333Z" fill="#0F1F93"/>
</svg>
