<svg width="22" height="22" viewBox="0 0 22 22" fill="none" xmlns="http://www.w3.org/2000/svg">
<circle cx="11" cy="11" r="11" fill="#EDEDF0"/>
<path d="M6 7.5C6 6.83696 6.26339 6.20107 6.73223 5.73223C7.20107 5.26339 7.83696 5 8.5 5H13.5C14.163 5 14.7989 5.26339 15.2678 5.73223C15.7366 6.20107 16 6.83696 16 7.5V9.05C16.5647 9.16527 17.0722 9.47209 17.4367 9.91855C17.8011 10.365 18.0001 10.9237 18 11.5V16.5C18 16.6326 17.9473 16.7598 17.8536 16.8536C17.7598 16.9473 17.6326 17 17.5 17C17.3674 17 17.2402 16.9473 17.1464 16.8536C17.0527 16.7598 17 16.6326 17 16.5V14H5V16.5C5 16.6326 4.94732 16.7598 4.85355 16.8536C4.75979 16.9473 4.63261 17 4.5 17C4.36739 17 4.24021 16.9473 4.14645 16.8536C4.05268 16.7598 4 16.6326 4 16.5V11.5C3.99988 10.9237 4.19889 10.365 4.56335 9.91855C4.9278 9.47209 5.43532 9.16527 6 9.05V7.5ZM5 13H17V11.5C17 11.1022 16.842 10.7206 16.5607 10.4393C16.2794 10.158 15.8978 10 15.5 10H6.5C6.10218 10 5.72064 10.158 5.43934 10.4393C5.15804 10.7206 5 11.1022 5 11.5V13ZM15 7.5C15 7.10218 14.842 6.72064 14.5607 6.43934C14.2794 6.15804 13.8978 6 13.5 6H8.5C8.10218 6 7.72064 6.15804 7.43934 6.43934C7.15804 6.72064 7 7.10218 7 7.5V9H8V8.5C8 8.36739 8.05268 8.24021 8.14645 8.14645C8.24021 8.05268 8.36739 8 8.5 8H10C10.1326 8 10.2598 8.05268 10.3536 8.14645C10.4473 8.24021 10.5 8.36739 10.5 8.5V9H11.5V8.5C11.5 8.36739 11.5527 8.24021 11.6464 8.14645C11.7402 8.05268 11.8674 8 12 8H13.5C13.6326 8 13.7598 8.05268 13.8536 8.14645C13.9473 8.24021 14 8.36739 14 8.5V9H15V7.5Z" fill="#434553"/>
</svg>
