<svg width="22" height="22" viewBox="0 0 22 22" fill="none" xmlns="http://www.w3.org/2000/svg">
<circle cx="11" cy="11" r="11" fill="#EDEDF0"/>
<g clip-path="url(#clip0_252_1585)">
<path d="M16.2838 10.9508C16.2838 12.5969 16.2838 14.2434 16.2838 15.8894C16.2838 16.229 16.1225 16.3902 15.7817 16.3902C12.4823 16.3902 9.18296 16.3902 5.88316 16.3902C5.54362 16.3902 5.38281 16.229 5.38281 15.8882C5.38281 12.5888 5.38281 9.28898 5.38281 5.9896C5.38281 5.64964 5.54362 5.48926 5.88444 5.48926C9.18381 5.48926 12.4832 5.48926 15.783 5.48926C16.123 5.48926 16.2838 5.65007 16.2838 5.99088C16.2838 7.6442 16.2838 9.29751 16.2838 10.9508ZM9.58264 6.34492C9.58264 6.63711 9.58349 6.91693 9.58179 7.19674C9.58136 7.25646 9.58008 7.31874 9.5643 7.37547C9.50842 7.57467 9.30837 7.70477 9.10831 7.67875C8.89205 7.65059 8.73593 7.47613 8.73209 7.24537C8.7274 6.98304 8.73081 6.72029 8.73081 6.45753C8.73081 6.42042 8.73081 6.38331 8.73081 6.34876C7.8888 6.34876 7.06428 6.34876 6.24317 6.34876C6.24317 7.18181 6.24317 8.00634 6.24317 8.82745C7.0758 8.82745 7.90075 8.82745 8.73081 8.82745C8.73081 8.75451 8.72996 8.69095 8.73081 8.6274C8.73465 8.35824 8.91125 8.16971 9.15907 8.17013C9.40733 8.17056 9.58136 8.35739 9.58221 8.6291C9.58349 9.05139 9.58349 9.47368 9.58179 9.89596C9.58179 9.95184 9.57752 10.0103 9.56131 10.0636C9.50245 10.2581 9.30282 10.3856 9.11002 10.3583C8.8929 10.3281 8.74276 10.1626 8.73167 9.93734C8.72783 9.85757 8.73124 9.77738 8.73124 9.69719C7.88923 9.69719 7.06513 9.69719 6.24231 9.69719C6.24231 10.5307 6.24231 11.3556 6.24231 12.1814C7.07409 12.1814 7.89819 12.1814 8.73081 12.1814C8.73081 11.8824 8.72868 11.5919 8.73124 11.3014C8.7338 11.0336 8.91466 10.848 9.16504 10.8506C9.40946 10.8536 9.58051 11.0378 9.58221 11.3044C9.58392 11.5599 9.58221 11.8154 9.58307 12.0709C9.58307 12.1085 9.5869 12.1456 9.58904 12.19C9.65771 12.19 9.71444 12.19 9.77075 12.19C10.3986 12.19 11.0269 12.1882 11.6548 12.1912C11.8779 12.1921 12.04 12.3358 12.0758 12.5512C12.1091 12.7487 11.9939 12.9492 11.799 13.0119C11.7265 13.0354 11.6459 13.0409 11.5687 13.0409C9.83729 13.0426 8.10549 13.0422 6.37412 13.0422C6.32976 13.0422 6.2854 13.0422 6.24189 13.0422C6.24189 13.8829 6.24189 14.7075 6.24189 15.5328C9.30666 15.5328 12.3638 15.5328 15.4255 15.5328C15.4255 14.7028 15.4255 13.8782 15.4255 13.0422C15.3786 13.0422 15.3372 13.0422 15.2954 13.0422C14.6637 13.0422 14.0324 13.0418 13.4007 13.0422C13.2113 13.0422 13.0612 12.9727 12.9754 12.7965C12.8359 12.509 13.042 12.1925 13.3738 12.1908C14.0162 12.1874 14.6582 12.19 15.3006 12.19C15.3419 12.19 15.3829 12.19 15.4234 12.19C15.4234 10.2321 15.4234 8.28957 15.4234 6.34492C13.4771 6.34492 11.5371 6.34492 9.58264 6.34492Z" fill="#434553"/>
</g>
<defs>
<clipPath id="clip0_252_1585">
<rect width="11.6261" height="11.7728" fill="white" transform="translate(5 5)"/>
</clipPath>
</defs>
</svg>
