<svg width="210" height="133" viewBox="0 0 210 133" fill="none" xmlns="http://www.w3.org/2000/svg">
<path d="M13.5243 64.3304H21.5535C26.5748 64.3304 29.0854 66.6585 29.0854 71.3111V91.973C29.0854 96.6291 26.5748 98.9537 21.5535 98.9537H13.5243C8.4527 98.9537 5.92194 96.6257 5.92194 91.973V71.3111C5.92194 66.6551 8.45607 64.3304 13.5243 64.3304ZM21.2007 91.0559V72.225C21.2007 71.4746 21.0595 70.9676 20.7738 70.7075C20.4881 70.4506 19.9437 70.3206 19.1404 70.3206H15.8702C15.0636 70.3206 14.5192 70.4506 14.2368 70.7075C13.9512 70.9676 13.81 71.4712 13.81 72.225V91.0559C13.81 91.8096 13.9512 92.3132 14.2368 92.5734C14.5225 92.8335 15.0636 92.9603 15.8702 92.9603H19.1404C19.947 92.9603 20.4915 92.8302 20.7738 92.5734C21.0595 92.3166 21.2007 91.8096 21.2007 91.0559Z" fill="white"/>
<path d="M199.645 39.5595H104.622C103.076 39.5595 101.822 38.3154 101.822 36.7812V23.4702C101.822 22.4896 101.301 21.5791 100.448 21.0788L78.9176 7.98462C77.9665 7.42763 76.7734 7.47432 75.8726 8.10802L54.7829 22.3996C54.0401 22.9199 53.5999 23.767 53.5999 24.6676V54.9117C53.5999 55.1285 53.6267 55.3419 53.6738 55.5487V64.9408C53.6738 65.5411 52.9613 65.838 52.5109 65.4377C51.6337 64.6506 50.3835 64.2571 48.7702 64.2571H46.5688C41.7358 64.2571 39.3193 66.5851 39.3193 71.2377V91.973C39.3193 96.6257 41.7358 98.9537 46.5688 98.9537H48.7702C50.4675 98.9537 51.7547 98.5301 52.6319 97.6797C53.0756 97.2494 53.8183 97.5396 53.8183 98.1566V98.907C53.8183 99.5441 54.3393 100.064 54.9846 100.064H60.6141C61.2594 100.064 61.7803 99.5474 61.7803 98.907V52.4603C61.7803 52.3535 61.7568 52.2501 61.7097 52.1601V28.83C61.7097 27.9261 62.15 27.0823 62.8928 26.562L76.2692 17.6869C77.17 17.0532 78.3664 17.0065 79.3142 17.5635L92.3445 25.6615C93.1948 26.1618 93.7191 27.069 93.7191 28.0529V44.8225C93.7191 46.3567 94.9727 47.6008 96.5187 47.6008H199.645C200.596 47.6008 201.366 46.837 201.366 45.8931V41.2638C201.362 40.3266 200.593 39.5595 199.645 39.5595ZM53.6772 90.4221C53.6772 91.973 52.9411 92.7468 51.4724 92.7468H49.3416C48.582 92.7468 48.0644 92.6167 47.7788 92.3599C47.4964 92.1031 47.3519 91.5961 47.3519 90.8424V72.3651C47.3519 71.6146 47.4964 71.1077 47.7788 70.8475C48.0644 70.5907 48.5854 70.4606 49.3416 70.4606H51.4724C52.279 70.4606 52.847 70.6374 53.1797 70.9909C53.5091 71.3445 53.6772 71.9682 53.6772 72.862V90.4221Z" fill="white"/>
<path d="M81.2534 98.9571H74.6022C74.2224 98.9571 73.9132 98.6502 73.9132 98.2733V65.0142C73.9132 64.6373 74.2224 64.3304 74.6022 64.3304H81.2534C81.6332 64.3304 81.9424 64.6373 81.9424 65.0142V98.2733C81.9424 98.6502 81.6332 98.9571 81.2534 98.9571Z" fill="white"/>
<path d="M106.964 64.257H109.095C113.975 64.257 116.415 66.585 116.415 71.2377V91.973C116.415 96.629 113.975 98.9537 109.095 98.9537H106.964C105.267 98.9537 103.97 98.5368 103.079 97.6997C102.642 97.2894 101.92 97.5996 101.92 98.1999V98.917C101.92 99.5507 101.402 100.068 100.76 100.068H95.1172C94.4786 100.068 93.9577 99.5541 93.9577 98.917V57.6365C93.9577 57.2597 94.2669 56.9528 94.6467 56.9528H101.298C101.678 56.9528 101.987 57.2597 101.987 57.6365V64.9508C101.987 65.5478 102.696 65.8513 103.146 65.4511C104.037 64.6573 105.311 64.257 106.964 64.257ZM108.312 90.8457V72.3684C108.312 71.6179 108.171 71.111 107.885 70.8508C107.6 70.594 107.079 70.464 106.323 70.464H104.192C102.723 70.464 101.99 71.2644 101.99 72.862V90.4221C101.99 91.973 102.723 92.7501 104.192 92.7501H106.323C107.079 92.7501 107.603 92.6201 107.885 92.3632C108.171 92.1031 108.312 91.5995 108.312 90.8457Z" fill="white"/>
<path d="M134.181 64.3304H142.21C147.232 64.3304 149.742 66.6585 149.742 71.3111V91.973C149.742 96.6291 147.232 98.9537 142.21 98.9537H134.181C129.11 98.9537 126.579 96.6257 126.579 91.973V71.3111C126.579 66.6551 129.113 64.3304 134.181 64.3304ZM141.857 91.0559V72.225C141.857 71.4746 141.716 70.9676 141.431 70.7075C141.145 70.4506 140.601 70.3206 139.797 70.3206H136.527C135.72 70.3206 135.176 70.4506 134.894 70.7075C134.608 70.9676 134.467 71.4712 134.467 72.225V91.0559C134.467 91.8096 134.608 92.3132 134.894 92.5734C135.179 92.8335 135.724 92.9603 136.527 92.9603H139.797C140.604 92.9603 141.148 92.8302 141.431 92.5734C141.713 92.3166 141.857 91.8096 141.857 91.0559Z" fill="white"/>
<path d="M167.35 98.9571H161.63C160.991 98.9571 160.474 98.4434 160.474 97.8097V57.6365C160.474 57.2597 160.783 56.9528 161.163 56.9528H167.814C168.194 56.9528 168.503 57.2597 168.503 57.6365V97.8097C168.506 98.4434 167.989 98.9571 167.35 98.9571Z" fill="white"/>
<path d="M194.281 64.3304H200.862C201.241 64.3304 201.551 64.6373 201.551 65.0142V98.0732C201.551 98.5602 201.151 98.9571 200.66 98.9571H194.14C193.76 98.9571 193.451 98.6502 193.451 98.2733C193.451 97.673 192.738 97.3728 192.288 97.7764C191.411 98.5635 190.161 98.9571 188.547 98.9571H186.346C181.513 98.9571 179.096 96.6291 179.096 91.9764V71.3145C179.096 66.6618 181.513 64.3338 186.346 64.3338H188.547C190.248 64.3338 191.535 64.7507 192.412 65.5878C192.856 66.0114 193.592 65.7179 193.592 65.1076V65.0175C193.592 64.634 193.898 64.3304 194.281 64.3304ZM189.112 92.7502H191.243C192.711 92.7502 193.444 91.973 193.444 90.4221V72.862C193.444 71.3111 192.708 70.534 191.243 70.534H189.112C188.352 70.534 187.831 70.6641 187.549 70.9209C187.263 71.1811 187.122 71.6847 187.122 72.4385V90.8457C187.122 91.5995 187.263 92.1031 187.549 92.3633C187.835 92.6201 188.356 92.7502 189.112 92.7502Z" fill="white"/>
<path d="M77.9262 127.774C65.632 127.774 55.5223 118.322 54.5846 106.355C54.5073 105.377 55.2871 104.54 56.2752 104.54H60.5402C61.4106 104.54 62.14 105.194 62.224 106.051C62.9936 113.976 69.739 120.189 77.9228 120.189C86.1066 120.189 92.852 113.972 93.6216 106.051C93.7057 105.194 94.4383 104.54 95.3055 104.54H99.5704C100.559 104.54 101.338 105.377 101.261 106.355C100.33 118.322 90.2204 127.774 77.9262 127.774Z" fill="white"/>
<path d="M113.747 108.529C113.747 109.033 113.653 109.456 113.465 109.8C113.276 110.143 113.024 110.424 112.705 110.634C112.386 110.844 112.019 111.001 111.603 111.097C111.186 111.194 110.752 111.244 110.302 111.244H109.26V114.493H107.163V105.878H110.349C110.823 105.878 111.266 105.924 111.68 106.018C112.093 106.111 112.453 106.261 112.759 106.468C113.065 106.675 113.307 106.945 113.481 107.282C113.659 107.619 113.747 108.036 113.747 108.529ZM111.653 108.543C111.653 108.339 111.613 108.172 111.529 108.042C111.448 107.912 111.337 107.812 111.199 107.739C111.061 107.665 110.903 107.619 110.729 107.592C110.554 107.569 110.372 107.555 110.184 107.555H109.263V109.586H110.147C110.342 109.586 110.53 109.57 110.712 109.536C110.89 109.503 111.051 109.446 111.196 109.366C111.34 109.286 111.451 109.176 111.532 109.043C111.613 108.909 111.653 108.746 111.653 108.543Z" fill="white"/>
<path d="M121.863 114.493L119.978 111.074H119.262V114.493H117.215V105.878H120.526C120.943 105.878 121.349 105.921 121.746 106.004C122.142 106.091 122.499 106.235 122.811 106.435C123.124 106.635 123.376 106.905 123.564 107.238C123.752 107.572 123.846 107.986 123.846 108.479C123.846 109.063 123.688 109.553 123.369 109.95C123.05 110.347 122.61 110.63 122.045 110.801L124.314 114.486H121.863V114.493ZM121.779 108.519C121.779 108.316 121.736 108.152 121.648 108.026C121.561 107.899 121.45 107.802 121.316 107.732C121.181 107.662 121.027 107.615 120.859 107.592C120.69 107.569 120.529 107.555 120.371 107.555H119.249V109.563H120.247C120.418 109.563 120.596 109.55 120.778 109.52C120.959 109.493 121.124 109.44 121.272 109.366C121.42 109.293 121.541 109.186 121.635 109.05C121.732 108.916 121.779 108.736 121.779 108.519Z" fill="white"/>
<path d="M136.601 110.147C136.601 110.827 136.483 111.451 136.245 112.015C136.006 112.578 135.68 113.062 135.257 113.462C134.837 113.862 134.336 114.172 133.754 114.393C133.173 114.613 132.544 114.723 131.865 114.723C131.187 114.723 130.561 114.613 129.983 114.393C129.409 114.172 128.908 113.862 128.488 113.462C128.068 113.059 127.738 112.578 127.5 112.015C127.261 111.451 127.143 110.827 127.143 110.147C127.143 109.456 127.261 108.836 127.5 108.279C127.738 107.725 128.064 107.252 128.488 106.862C128.908 106.471 129.409 106.171 129.983 105.961C130.558 105.751 131.187 105.644 131.865 105.644C132.544 105.644 133.173 105.751 133.754 105.961C134.336 106.171 134.837 106.471 135.257 106.862C135.677 107.252 136.006 107.722 136.245 108.279C136.483 108.836 136.601 109.46 136.601 110.147ZM134.356 110.147C134.356 109.773 134.295 109.426 134.171 109.1C134.05 108.776 133.879 108.499 133.664 108.266C133.448 108.032 133.186 107.852 132.88 107.719C132.575 107.585 132.235 107.519 131.869 107.519C131.503 107.519 131.166 107.585 130.864 107.719C130.561 107.852 130.299 108.036 130.081 108.266C129.859 108.496 129.691 108.776 129.573 109.1C129.456 109.423 129.395 109.773 129.395 110.147C129.395 110.537 129.456 110.894 129.58 111.224C129.704 111.554 129.872 111.834 130.088 112.071C130.303 112.308 130.565 112.492 130.867 112.625C131.17 112.758 131.506 112.825 131.872 112.825C132.239 112.825 132.575 112.758 132.877 112.625C133.18 112.492 133.442 112.305 133.66 112.071C133.882 111.834 134.053 111.554 134.174 111.224C134.295 110.897 134.356 110.537 134.356 110.147Z" fill="white"/>
<path d="M146.775 108.529C146.775 109.033 146.68 109.456 146.492 109.8C146.304 110.143 146.052 110.424 145.733 110.634C145.413 110.844 145.047 111.001 144.63 111.097C144.214 111.194 143.78 111.244 143.33 111.244H142.288V114.493H140.19V105.878H143.377C143.851 105.878 144.294 105.924 144.708 106.018C145.121 106.111 145.481 106.261 145.786 106.468C146.092 106.675 146.334 106.945 146.509 107.282C146.687 107.619 146.775 108.036 146.775 108.529ZM144.681 108.543C144.681 108.339 144.64 108.172 144.556 108.042C144.476 107.912 144.365 107.812 144.227 107.739C144.089 107.665 143.931 107.619 143.756 107.592C143.582 107.569 143.4 107.555 143.212 107.555H142.291V109.586H143.175C143.37 109.586 143.558 109.57 143.74 109.536C143.918 109.503 144.079 109.446 144.224 109.366C144.368 109.286 144.479 109.176 144.56 109.043C144.64 108.909 144.681 108.746 144.681 108.543Z" fill="white"/>
<path d="M150.246 114.493V105.878H156.081V107.629H152.27V109.26H155.872V110.927H152.27V112.715H156.303V114.493H150.246Z" fill="white"/>
<path d="M164.54 114.493L162.655 111.074H161.939V114.493H159.892V105.878H163.203C163.619 105.878 164.026 105.921 164.423 106.004C164.819 106.091 165.176 106.235 165.488 106.435C165.801 106.635 166.053 106.905 166.241 107.238C166.429 107.572 166.523 107.986 166.523 108.479C166.523 109.063 166.365 109.553 166.046 109.95C165.727 110.347 165.286 110.63 164.722 110.801L166.99 114.486H164.54V114.493ZM164.453 108.519C164.453 108.316 164.409 108.152 164.322 108.026C164.234 107.899 164.124 107.802 163.989 107.732C163.855 107.662 163.7 107.615 163.532 107.592C163.364 107.569 163.203 107.555 163.045 107.555H161.922V109.563H162.92C163.092 109.563 163.27 109.55 163.451 109.52C163.633 109.493 163.798 109.44 163.945 109.366C164.093 109.293 164.214 109.186 164.308 109.05C164.406 108.916 164.453 108.736 164.453 108.519Z" fill="white"/>
<path d="M173.796 107.655V114.493H171.699V107.655H169.249V105.878H176.25V107.655H173.796Z" fill="white"/>
<path d="M179.412 114.493V105.878H181.52V114.493H179.412Z" fill="white"/>
<path d="M185.516 114.493V105.878H191.35V107.629H187.539V109.26H191.142V110.927H187.539V112.715H191.572V114.493H185.516Z" fill="white"/>
<path d="M199.749 108.116C199.568 107.889 199.336 107.709 199.043 107.575C198.754 107.442 198.472 107.375 198.203 107.375C198.065 107.375 197.924 107.389 197.78 107.412C197.635 107.435 197.508 107.482 197.393 107.552C197.279 107.622 197.182 107.709 197.104 107.819C197.027 107.929 196.987 108.069 196.987 108.239C196.987 108.386 197.017 108.506 197.077 108.603C197.138 108.699 197.229 108.786 197.346 108.859C197.464 108.933 197.605 109 197.77 109.06C197.934 109.12 198.116 109.183 198.321 109.246C198.617 109.343 198.922 109.453 199.242 109.57C199.561 109.687 199.85 109.843 200.112 110.037C200.374 110.23 200.589 110.474 200.761 110.761C200.932 111.051 201.02 111.408 201.02 111.838C201.02 112.331 200.929 112.762 200.744 113.122C200.559 113.482 200.314 113.779 200.001 114.016C199.689 114.253 199.336 114.426 198.936 114.539C198.536 114.653 198.123 114.709 197.699 114.709C197.077 114.709 196.476 114.603 195.898 114.386C195.32 114.169 194.836 113.866 194.452 113.469L195.827 112.081C196.039 112.341 196.318 112.558 196.667 112.732C197.013 112.905 197.36 112.995 197.702 112.995C197.857 112.995 198.008 112.978 198.156 112.945C198.304 112.912 198.432 112.858 198.543 112.788C198.654 112.715 198.741 112.618 198.808 112.495C198.872 112.371 198.906 112.228 198.906 112.058C198.906 111.898 198.865 111.758 198.785 111.644C198.704 111.531 198.586 111.428 198.435 111.334C198.284 111.241 198.096 111.154 197.87 111.077C197.645 111.001 197.39 110.917 197.104 110.827C196.825 110.737 196.553 110.634 196.288 110.51C196.022 110.387 195.783 110.234 195.575 110.043C195.367 109.853 195.199 109.62 195.071 109.35C194.943 109.08 194.879 108.746 194.879 108.359C194.879 107.879 194.977 107.472 195.175 107.132C195.37 106.792 195.629 106.511 195.948 106.291C196.267 106.071 196.627 105.911 197.027 105.811C197.427 105.711 197.834 105.658 198.24 105.658C198.731 105.658 199.232 105.748 199.743 105.924C200.253 106.105 200.7 106.365 201.084 106.715L199.749 108.116Z" fill="white"/>
</svg>
