<svg width="56" height="56" viewBox="0 0 56 56" fill="none" xmlns="http://www.w3.org/2000/svg">
<circle cx="28" cy="28" r="28" fill="#EBEDFF"/>
<path d="M36.9168 14.6519C37.3901 14.6519 37.8149 14.6506 38.2384 14.6519C40.0749 14.6616 41.3316 15.9199 41.3357 17.7597C41.3399 19.4599 41.3371 21.1616 41.3371 22.8619C41.3371 29.3771 41.3371 35.8923 41.3371 42.4088C41.3371 43.6796 40.8292 44.6713 39.6639 45.2279C39.2529 45.424 38.7588 45.5318 38.3021 45.5332C31.4875 45.5525 24.673 45.5497 17.8571 45.5428C16.0801 45.5414 14.8124 44.2693 14.811 42.4917C14.8055 34.2293 14.8055 25.9669 14.811 17.7058C14.8124 16.1091 15.8171 15.0207 17.3837 14.6892C18.776 14.3936 20.1392 13.9669 21.5121 13.5884C25.3774 12.5235 29.2414 11.4503 33.1081 10.3867C35.1176 9.83425 36.8974 11.1878 36.914 13.2707C36.9195 13.7168 36.9168 14.163 36.9168 14.6519ZM39.8673 30.134C39.8673 26.0318 39.866 21.9296 39.8687 17.8287C39.8687 17.3287 39.7705 16.8729 39.3816 16.5166C39.0245 16.1892 38.5941 16.1188 38.1333 16.1202C33.9205 16.1215 29.7078 16.1215 25.4951 16.1215C22.986 16.1215 20.4769 16.1243 17.9678 16.1202C17.381 16.1188 16.8385 16.2638 16.5506 16.7983C16.3804 17.1146 16.2946 17.5166 16.2932 17.8798C16.278 24.0387 16.2821 30.1975 16.2821 36.3564C16.2821 38.3674 16.2835 40.3785 16.2807 42.3881C16.2794 42.9309 16.4122 43.4088 16.8606 43.7611C17.208 44.0345 17.6121 44.0787 18.0342 44.0787C23.3057 44.0774 28.5771 44.0774 33.8499 44.0774C35.3003 44.0774 36.7507 44.076 38.2011 44.0787C38.7062 44.0801 39.1546 43.9558 39.5006 43.5594C39.8106 43.2058 39.8687 42.7832 39.8687 42.337C39.866 38.2693 39.8673 34.2017 39.8673 30.134ZM35.429 14.6354C35.429 14.0939 35.4692 13.5649 35.4138 13.0456C35.382 12.7569 35.245 12.4406 35.0609 12.2141C34.6678 11.7279 34.1267 11.6367 33.5302 11.8011C30.2295 12.7127 26.9288 13.6202 23.6281 14.5304C23.5561 14.5497 23.4897 14.5843 23.361 14.6354C27.4243 14.6354 31.4156 14.6354 35.429 14.6354Z" fill="#0F1F93"/>
<path d="M19.9759 27.1533C19.9814 22.6934 23.6198 19.0635 28.0775 19.0663C32.538 19.0704 36.1764 22.7086 36.1722 27.1602C36.1667 31.6174 32.52 35.2583 28.0706 35.25C23.6074 35.2403 19.9703 31.6036 19.9759 27.1533ZM30.2392 26.4075C30.1673 24.8425 29.9541 23.3508 29.3272 21.9461C29.1736 21.6036 28.9771 21.2721 28.7529 20.971C28.3294 20.4033 27.827 20.4088 27.3924 20.9696C27.225 21.1865 27.0797 21.424 26.9537 21.6671C26.4652 22.605 26.2216 23.6188 26.0749 24.6575C25.9947 25.2307 25.9504 25.8094 25.8867 26.4088C27.3689 26.4075 28.7792 26.4075 30.2392 26.4075ZM30.2503 27.9144C28.7833 27.9144 27.3523 27.9144 25.9213 27.9144C25.9158 29.2099 26.2285 30.9696 26.7143 32.1395C26.8845 32.5483 27.1143 32.942 27.3703 33.3052C27.8104 33.9296 28.328 33.913 28.7902 33.2983C28.8179 33.2611 28.8456 33.2238 28.8705 33.1865C29.9126 31.5843 30.1119 29.768 30.2503 27.9144ZM30.6544 21.0718C30.9091 21.9613 31.2038 22.8191 31.3921 23.6989C31.5803 24.5815 31.6605 25.4862 31.7906 26.3936C32.7151 26.3936 33.6576 26.3936 34.6277 26.3936C34.2333 23.8798 32.9089 22.1174 30.6544 21.0718ZM25.4854 21.105C23.2461 21.9558 21.6615 24.3646 21.5688 26.4033C22.5071 26.4033 23.4454 26.4033 24.3575 26.4033C24.4889 25.482 24.5692 24.576 24.7574 23.6934C24.9456 22.8135 25.2418 21.9572 25.4854 21.105ZM34.6291 27.9199C33.6451 27.9199 32.6971 27.9199 31.7422 27.9199C31.6218 29.7624 31.3561 31.5483 30.5382 33.2942C32.9199 32.1961 34.2361 30.4227 34.6291 27.9199ZM21.5204 27.9102C21.912 30.4282 23.2337 32.2003 25.6168 33.2942C24.7796 31.5414 24.5304 29.7459 24.4031 27.9102C23.4399 27.9102 22.5002 27.9102 21.5204 27.9102Z" fill="#0F1F93"/>
<path d="M27.9017 36.7624C30.1922 36.7624 32.484 36.7624 34.7744 36.7624C34.8547 36.7624 34.935 36.7624 35.0166 36.7624C35.6588 36.7652 36.0214 37.0387 36.0103 37.5097C35.9978 37.9765 35.6491 38.2334 35.0249 38.2334C30.4316 38.2334 25.8383 38.2334 21.245 38.2307C20.9363 38.2307 20.6208 38.2307 20.3205 38.1713C19.9925 38.1063 19.7821 37.7652 19.8084 37.4475C19.8375 37.1105 20.0755 36.8425 20.4104 36.7873C20.5461 36.7652 20.6858 36.761 20.8229 36.761C21.8594 36.7597 22.8946 36.7597 23.9312 36.761C25.2556 36.761 26.5787 36.761 27.9031 36.761C27.9017 36.761 27.9017 36.761 27.9017 36.7624Z" fill="#0F1F93"/>
<path d="M27.9114 41.1782C26.5302 41.1782 25.1504 41.1795 23.7693 41.1782C23.1091 41.1782 22.7645 40.9295 22.7535 40.453C22.7424 39.9627 23.0994 39.6947 23.7707 39.6947C26.5316 39.6947 29.2926 39.6934 32.0536 39.6961C32.2127 39.6961 32.3774 39.7099 32.5297 39.75C32.859 39.8356 33.0639 40.1353 33.0486 40.4724C33.0334 40.797 32.8189 41.0635 32.4951 41.1326C32.3387 41.1657 32.1767 41.1768 32.0162 41.1768C30.6503 41.1795 29.2801 41.1782 27.9114 41.1782Z" fill="#0F1F93"/>
</svg>
