<svg width="22" height="22" viewBox="0 0 22 22" fill="none" xmlns="http://www.w3.org/2000/svg">
<circle cx="11" cy="11" r="11" fill="#EDEDF0"/>
<path d="M16.833 10.9997H6.91634V7.73885C6.91429 7.52876 6.96973 7.3221 7.07666 7.14125C7.18359 6.96039 7.33794 6.81222 7.52301 6.71277C7.72779 6.60207 7.96106 6.55534 8.19267 6.5786C8.07477 6.93556 8.05798 7.31819 8.14416 7.6841C8.23033 8.05002 8.41612 8.38494 8.68092 8.65177L9.29926 9.2701C9.35343 9.32434 9.41777 9.36736 9.48858 9.39672C9.5594 9.42607 9.63531 9.44118 9.71197 9.44118C9.78862 9.44118 9.86453 9.42607 9.93535 9.39672C10.0062 9.36736 10.0705 9.32434 10.1247 9.2701L12.1868 7.20802C12.2961 7.09862 12.3575 6.95028 12.3575 6.7956C12.3575 6.64092 12.2961 6.49257 12.1868 6.38318L11.5684 5.76485C11.2241 5.42198 10.7686 5.21341 10.2841 5.17672C9.79961 5.14003 9.31793 5.27765 8.92592 5.56477C8.57253 5.42667 8.19075 5.37701 7.81379 5.42011C7.43683 5.46321 7.07612 5.59777 6.76302 5.81208C6.44993 6.02639 6.19394 6.31395 6.01733 6.64976C5.84072 6.98556 5.74884 7.35943 5.74967 7.73885V10.9997H5.16634C5.01163 10.9997 4.86326 11.0611 4.75386 11.1705C4.64447 11.2799 4.58301 11.4283 4.58301 11.583C4.58301 11.7377 4.64447 11.8861 4.75386 11.9955C4.86326 12.1049 5.01163 12.1663 5.16634 12.1663H5.74967V13.9163C5.75075 14.2771 5.86347 14.6287 6.07236 14.9228C6.28125 15.2169 6.57608 15.4392 6.91634 15.559V16.2497C6.91634 16.4044 6.9778 16.5528 7.0872 16.6622C7.19659 16.7716 7.34496 16.833 7.49967 16.833C7.65438 16.833 7.80276 16.7716 7.91215 16.6622C8.02155 16.5528 8.08301 16.4044 8.08301 16.2497V15.6663H13.9163V16.2497C13.9163 16.4044 13.9778 16.5528 14.0872 16.6622C14.1966 16.7716 14.345 16.833 14.4997 16.833C14.6544 16.833 14.8028 16.7716 14.9122 16.6622C15.0216 16.5528 15.083 16.4044 15.083 16.2497V15.559C15.4233 15.4392 15.7181 15.2169 15.927 14.9228C16.1359 14.6287 16.2486 14.2771 16.2497 13.9163V12.1663H16.833C16.9877 12.1663 17.1361 12.1049 17.2455 11.9955C17.3549 11.8861 17.4163 11.7377 17.4163 11.583C17.4163 11.4283 17.3549 11.2799 17.2455 11.1705C17.1361 11.0611 16.9877 10.9997 16.833 10.9997ZM9.50634 6.58968C9.67055 6.42611 9.89289 6.33427 10.1247 6.33427C10.3565 6.33427 10.5788 6.42611 10.743 6.58968L10.9495 6.7956L9.71226 8.03285L9.50576 7.82693C9.34168 7.66275 9.24952 7.44013 9.24952 7.20802C9.24952 6.9759 9.34168 6.75329 9.50576 6.5891L9.50634 6.58968ZM15.083 13.9163C15.083 14.0711 15.0216 14.2194 14.9122 14.3288C14.8028 14.4382 14.6544 14.4997 14.4997 14.4997H7.49967C7.34496 14.4997 7.19659 14.4382 7.0872 14.3288C6.9778 14.2194 6.91634 14.0711 6.91634 13.9163V12.1663H15.083V13.9163Z" fill="#434553"/>
</svg>
