<svg width="333" height="344" viewBox="0 0 333 344" fill="none" xmlns="http://www.w3.org/2000/svg">
<rect x="0.5" y="0.5" width="332" height="343" rx="7.5" fill="#EDEDF0" stroke="#0F1F93" stroke-dasharray="3 3"/>
<path fill-rule="evenodd" clip-rule="evenodd" d="M153.023 115.033C156.771 111.801 161.551 110.016 166.5 110C176.588 110 184.961 117.5 185.873 127.171C191.843 128.015 196.5 133.014 196.5 139.149C196.5 145.884 190.882 151.25 184.076 151.25H174C173.503 151.25 173.026 151.052 172.674 150.701C172.323 150.349 172.125 149.872 172.125 149.375C172.125 148.878 172.323 148.401 172.674 148.049C173.026 147.698 173.503 147.5 174 147.5H184.08C188.921 147.5 192.75 143.705 192.75 139.149C192.75 134.589 188.925 130.794 184.076 130.794H182.201V128.919C182.205 120.594 175.23 113.75 166.5 113.75C162.45 113.766 158.538 115.229 155.471 117.875C152.632 120.32 151.148 123.268 151.148 125.581V127.261L149.479 127.445C144.24 128.019 140.25 132.32 140.25 137.442C140.25 142.944 144.862 147.5 150.679 147.5H159C159.497 147.5 159.974 147.698 160.326 148.049C160.677 148.401 160.875 148.878 160.875 149.375C160.875 149.872 160.677 150.349 160.326 150.701C159.974 151.052 159.497 151.25 159 151.25H150.679C142.905 151.25 136.5 145.123 136.5 137.442C136.5 130.831 141.247 125.356 147.532 123.969C148.069 120.733 150.15 117.508 153.023 115.033Z" fill="#0F1F93"/>
<path fill-rule="evenodd" clip-rule="evenodd" d="M165.173 125.549C165.348 125.375 165.554 125.236 165.782 125.142C166.01 125.047 166.254 124.999 166.501 124.999C166.748 124.999 166.992 125.047 167.22 125.142C167.447 125.236 167.654 125.375 167.828 125.549L179.078 136.799C179.43 137.151 179.628 137.629 179.628 138.127C179.628 138.625 179.43 139.102 179.078 139.454C178.726 139.806 178.249 140.004 177.751 140.004C177.253 140.004 176.775 139.806 176.423 139.454L168.376 131.403V164.377C168.376 164.874 168.178 165.351 167.827 165.703C167.475 166.054 166.998 166.252 166.501 166.252C166.004 166.252 165.527 166.054 165.175 165.703C164.823 165.351 164.626 164.874 164.626 164.377V131.403L156.578 139.454C156.226 139.806 155.749 140.004 155.251 140.004C154.753 140.004 154.275 139.806 153.923 139.454C153.571 139.102 153.374 138.625 153.374 138.127C153.374 137.629 153.571 137.151 153.923 136.799L165.173 125.549Z" fill="#0F1F93"/>
<path opacity="0.5" d="M116.408 205.712C116.016 206.244 115.507 206.678 114.882 207.014C114.257 207.341 113.505 207.504 112.628 207.504C111.872 207.504 111.172 207.378 110.528 207.126C109.893 206.865 109.343 206.505 108.876 206.048C108.419 205.581 108.059 205.031 107.798 204.396C107.537 203.752 107.406 203.047 107.406 202.282C107.406 201.507 107.537 200.803 107.798 200.168C108.069 199.524 108.437 198.978 108.904 198.53C109.38 198.073 109.94 197.718 110.584 197.466C111.228 197.214 111.928 197.088 112.684 197.088C113.02 197.088 113.361 197.121 113.706 197.186C114.051 197.251 114.383 197.349 114.7 197.48C115.017 197.611 115.307 197.774 115.568 197.97C115.829 198.157 116.053 198.376 116.24 198.628L115.148 199.468C114.905 199.132 114.56 198.857 114.112 198.642C113.673 198.418 113.197 198.306 112.684 198.306C112.105 198.306 111.583 198.413 111.116 198.628C110.659 198.833 110.267 199.118 109.94 199.482C109.613 199.846 109.361 200.271 109.184 200.756C109.007 201.232 108.918 201.741 108.918 202.282C108.918 202.842 109.002 203.365 109.17 203.85C109.347 204.335 109.595 204.76 109.912 205.124C110.239 205.479 110.631 205.759 111.088 205.964C111.555 206.169 112.073 206.272 112.642 206.272C113.202 206.272 113.711 206.16 114.168 205.936C114.625 205.712 115.003 205.385 115.302 204.956L116.408 205.712ZM119.096 207.252H117.78V196.668H119.096V207.252ZM122.719 207.252H121.403V200.616H122.719V207.252ZM122.943 198.222C122.943 198.465 122.854 198.665 122.677 198.824C122.509 198.983 122.304 199.062 122.061 199.062C121.818 199.062 121.613 198.983 121.445 198.824C121.277 198.656 121.193 198.455 121.193 198.222C121.193 197.979 121.277 197.779 121.445 197.62C121.613 197.452 121.818 197.368 122.061 197.368C122.304 197.368 122.509 197.452 122.677 197.62C122.854 197.779 122.943 197.979 122.943 198.222ZM129.66 202.296C129.52 202.081 129.31 201.904 129.03 201.764C128.75 201.615 128.451 201.54 128.134 201.54C127.789 201.54 127.481 201.605 127.21 201.736C126.949 201.867 126.725 202.044 126.538 202.268C126.351 202.483 126.207 202.735 126.104 203.024C126.011 203.313 125.964 203.617 125.964 203.934C125.964 204.251 126.011 204.555 126.104 204.844C126.207 205.133 126.351 205.39 126.538 205.614C126.725 205.829 126.953 206.001 127.224 206.132C127.495 206.263 127.803 206.328 128.148 206.328C128.484 206.328 128.787 206.263 129.058 206.132C129.338 206.001 129.567 205.824 129.744 205.6L130.626 206.398C130.346 206.725 129.996 206.981 129.576 207.168C129.156 207.345 128.68 207.434 128.148 207.434C127.635 207.434 127.159 207.35 126.72 207.182C126.291 207.014 125.917 206.781 125.6 206.482C125.283 206.174 125.031 205.805 124.844 205.376C124.667 204.947 124.578 204.466 124.578 203.934C124.578 203.411 124.667 202.935 124.844 202.506C125.021 202.077 125.269 201.708 125.586 201.4C125.903 201.092 126.277 200.854 126.706 200.686C127.145 200.518 127.616 200.434 128.12 200.434C128.587 200.434 129.049 200.527 129.506 200.714C129.973 200.901 130.341 201.171 130.612 201.526L129.66 202.296ZM133.274 203.5H133.316L136.102 200.616H137.866L134.758 203.626L138.132 207.252H136.312L133.316 203.808H133.274V207.252H131.958V196.668H133.274V203.5ZM146.061 201.694H144.297V205.152C144.297 205.553 144.371 205.843 144.521 206.02C144.67 206.188 144.908 206.272 145.235 206.272C145.356 206.272 145.487 206.258 145.627 206.23C145.767 206.202 145.893 206.16 146.005 206.104L146.047 207.182C145.888 207.238 145.711 207.28 145.515 207.308C145.328 207.345 145.132 207.364 144.927 207.364C144.301 207.364 143.821 207.191 143.485 206.846C143.158 206.501 142.995 205.983 142.995 205.292V201.694H141.721V200.616H142.995V198.712H144.297V200.616H146.061V201.694ZM154.14 203.92C154.14 204.433 154.047 204.905 153.86 205.334C153.683 205.763 153.431 206.137 153.104 206.454C152.787 206.762 152.409 207.005 151.97 207.182C151.531 207.35 151.06 207.434 150.556 207.434C150.052 207.434 149.581 207.35 149.142 207.182C148.703 207.005 148.325 206.762 148.008 206.454C147.691 206.137 147.439 205.763 147.252 205.334C147.075 204.905 146.986 204.433 146.986 203.92C146.986 203.407 147.075 202.94 147.252 202.52C147.439 202.091 147.691 201.722 148.008 201.414C148.325 201.106 148.703 200.868 149.142 200.7C149.581 200.523 150.052 200.434 150.556 200.434C151.06 200.434 151.531 200.523 151.97 200.7C152.409 200.868 152.787 201.106 153.104 201.414C153.431 201.722 153.683 202.091 153.86 202.52C154.047 202.94 154.14 203.407 154.14 203.92ZM152.768 203.92C152.768 203.603 152.717 203.299 152.614 203.01C152.521 202.721 152.381 202.469 152.194 202.254C152.007 202.03 151.774 201.853 151.494 201.722C151.223 201.591 150.911 201.526 150.556 201.526C150.201 201.526 149.884 201.591 149.604 201.722C149.333 201.853 149.105 202.03 148.918 202.254C148.731 202.469 148.587 202.721 148.484 203.01C148.391 203.299 148.344 203.603 148.344 203.92C148.344 204.237 148.391 204.541 148.484 204.83C148.587 205.119 148.731 205.376 148.918 205.6C149.105 205.824 149.333 206.001 149.604 206.132C149.884 206.263 150.201 206.328 150.556 206.328C150.911 206.328 151.223 206.263 151.494 206.132C151.774 206.001 152.007 205.824 152.194 205.6C152.381 205.376 152.521 205.119 152.614 204.83C152.717 204.541 152.768 204.237 152.768 203.92ZM160.767 206.202V207.252H159.493V196.668H160.809V201.61H160.851C161.075 201.283 161.388 201.008 161.789 200.784C162.19 200.551 162.666 200.434 163.217 200.434C163.712 200.434 164.16 200.523 164.561 200.7C164.972 200.877 165.322 201.125 165.611 201.442C165.91 201.759 166.138 202.133 166.297 202.562C166.456 202.982 166.535 203.435 166.535 203.92C166.535 204.405 166.456 204.863 166.297 205.292C166.138 205.721 165.914 206.095 165.625 206.412C165.336 206.729 164.986 206.981 164.575 207.168C164.164 207.345 163.702 207.434 163.189 207.434C162.713 207.434 162.26 207.331 161.831 207.126C161.402 206.911 161.056 206.603 160.795 206.202H160.767ZM165.177 203.92C165.177 203.612 165.13 203.313 165.037 203.024C164.944 202.735 164.804 202.478 164.617 202.254C164.43 202.03 164.197 201.853 163.917 201.722C163.646 201.591 163.329 201.526 162.965 201.526C162.629 201.526 162.321 201.591 162.041 201.722C161.77 201.853 161.537 202.03 161.341 202.254C161.145 202.478 160.991 202.735 160.879 203.024C160.776 203.313 160.725 203.617 160.725 203.934C160.725 204.251 160.776 204.555 160.879 204.844C160.991 205.133 161.145 205.39 161.341 205.614C161.537 205.829 161.77 206.001 162.041 206.132C162.321 206.263 162.629 206.328 162.965 206.328C163.329 206.328 163.646 206.263 163.917 206.132C164.197 205.992 164.43 205.81 164.617 205.586C164.804 205.362 164.944 205.105 165.037 204.816C165.13 204.527 165.177 204.228 165.177 203.92ZM168.365 202.044C168.365 201.867 168.361 201.638 168.351 201.358C168.342 201.078 168.328 200.831 168.309 200.616H169.555C169.574 200.784 169.588 200.98 169.597 201.204C169.607 201.419 169.611 201.596 169.611 201.736H169.653C169.84 201.344 170.111 201.031 170.465 200.798C170.829 200.555 171.235 200.434 171.683 200.434C171.889 200.434 172.061 200.453 172.201 200.49L172.145 201.708C171.959 201.661 171.758 201.638 171.543 201.638C171.226 201.638 170.951 201.699 170.717 201.82C170.484 201.932 170.288 202.086 170.129 202.282C169.98 202.478 169.868 202.707 169.793 202.968C169.719 203.22 169.681 203.486 169.681 203.766V207.252H168.365V202.044ZM179.912 203.92C179.912 204.433 179.818 204.905 179.632 205.334C179.454 205.763 179.202 206.137 178.876 206.454C178.558 206.762 178.18 207.005 177.742 207.182C177.303 207.35 176.832 207.434 176.328 207.434C175.824 207.434 175.352 207.35 174.914 207.182C174.475 207.005 174.097 206.762 173.78 206.454C173.462 206.137 173.21 205.763 173.024 205.334C172.846 204.905 172.758 204.433 172.758 203.92C172.758 203.407 172.846 202.94 173.024 202.52C173.21 202.091 173.462 201.722 173.78 201.414C174.097 201.106 174.475 200.868 174.914 200.7C175.352 200.523 175.824 200.434 176.328 200.434C176.832 200.434 177.303 200.523 177.742 200.7C178.18 200.868 178.558 201.106 178.876 201.414C179.202 201.722 179.454 202.091 179.632 202.52C179.818 202.94 179.912 203.407 179.912 203.92ZM178.54 203.92C178.54 203.603 178.488 203.299 178.386 203.01C178.292 202.721 178.152 202.469 177.966 202.254C177.779 202.03 177.546 201.853 177.266 201.722C176.995 201.591 176.682 201.526 176.328 201.526C175.973 201.526 175.656 201.591 175.376 201.722C175.105 201.853 174.876 202.03 174.69 202.254C174.503 202.469 174.358 202.721 174.256 203.01C174.162 203.299 174.116 203.603 174.116 203.92C174.116 204.237 174.162 204.541 174.256 204.83C174.358 205.119 174.503 205.376 174.69 205.6C174.876 205.824 175.105 206.001 175.376 206.132C175.656 206.263 175.973 206.328 176.328 206.328C176.682 206.328 176.995 206.263 177.266 206.132C177.546 206.001 177.779 205.824 177.966 205.6C178.152 205.376 178.292 205.119 178.386 204.83C178.488 204.541 178.54 204.237 178.54 203.92ZM182.227 200.616L183.725 205.684H183.753L185.335 200.616H186.721L188.331 205.684H188.359L189.857 200.616H191.243L189.045 207.252H187.673L186.035 202.268H186.007L184.383 207.252H183.011L180.799 200.616H182.227ZM196.149 202.296C195.999 202.053 195.789 201.857 195.519 201.708C195.248 201.549 194.945 201.47 194.609 201.47C194.459 201.47 194.31 201.489 194.161 201.526C194.011 201.554 193.876 201.605 193.755 201.68C193.643 201.745 193.549 201.834 193.475 201.946C193.409 202.049 193.377 202.179 193.377 202.338C193.377 202.618 193.503 202.828 193.755 202.968C194.007 203.099 194.385 203.22 194.889 203.332C195.206 203.407 195.5 203.495 195.771 203.598C196.041 203.701 196.275 203.831 196.471 203.99C196.676 204.139 196.835 204.321 196.947 204.536C197.059 204.751 197.115 205.003 197.115 205.292C197.115 205.684 197.04 206.015 196.891 206.286C196.741 206.557 196.541 206.781 196.289 206.958C196.046 207.126 195.766 207.247 195.449 207.322C195.131 207.397 194.805 207.434 194.469 207.434C193.965 207.434 193.47 207.336 192.985 207.14C192.509 206.944 192.112 206.645 191.795 206.244L192.733 205.446C192.91 205.707 193.153 205.927 193.461 206.104C193.778 206.281 194.123 206.37 194.497 206.37C194.665 206.37 194.823 206.356 194.973 206.328C195.131 206.291 195.271 206.235 195.393 206.16C195.523 206.085 195.626 205.987 195.701 205.866C195.775 205.745 195.813 205.591 195.813 205.404C195.813 205.096 195.663 204.867 195.365 204.718C195.075 204.569 194.646 204.429 194.077 204.298C193.853 204.242 193.624 204.177 193.391 204.102C193.167 204.018 192.961 203.906 192.775 203.766C192.588 203.626 192.434 203.453 192.313 203.248C192.201 203.033 192.145 202.772 192.145 202.464C192.145 202.109 192.215 201.806 192.355 201.554C192.504 201.293 192.695 201.083 192.929 200.924C193.162 200.756 193.428 200.635 193.727 200.56C194.025 200.476 194.333 200.434 194.651 200.434C195.127 200.434 195.584 200.527 196.023 200.714C196.471 200.901 196.816 201.171 197.059 201.526L196.149 202.296ZM203.643 203.346C203.634 203.085 203.587 202.842 203.503 202.618C203.429 202.385 203.312 202.184 203.153 202.016C203.004 201.848 202.813 201.717 202.579 201.624C202.355 201.521 202.089 201.47 201.781 201.47C201.501 201.47 201.235 201.521 200.983 201.624C200.741 201.717 200.526 201.848 200.339 202.016C200.162 202.184 200.013 202.385 199.891 202.618C199.779 202.842 199.714 203.085 199.695 203.346H203.643ZM204.973 203.878C204.973 203.953 204.973 204.027 204.973 204.102C204.973 204.177 204.969 204.251 204.959 204.326H199.695C199.705 204.606 199.765 204.872 199.877 205.124C199.999 205.367 200.157 205.581 200.353 205.768C200.549 205.945 200.773 206.085 201.025 206.188C201.287 206.291 201.562 206.342 201.851 206.342C202.299 206.342 202.687 206.244 203.013 206.048C203.34 205.852 203.597 205.614 203.783 205.334L204.707 206.076C204.353 206.543 203.933 206.888 203.447 207.112C202.971 207.327 202.439 207.434 201.851 207.434C201.347 207.434 200.881 207.35 200.451 207.182C200.022 207.014 199.653 206.781 199.345 206.482C199.037 206.174 198.795 205.805 198.617 205.376C198.44 204.947 198.351 204.471 198.351 203.948C198.351 203.435 198.435 202.963 198.603 202.534C198.781 202.095 199.023 201.722 199.331 201.414C199.639 201.106 200.003 200.868 200.423 200.7C200.843 200.523 201.296 200.434 201.781 200.434C202.267 200.434 202.705 200.513 203.097 200.672C203.499 200.831 203.835 201.059 204.105 201.358C204.385 201.657 204.6 202.021 204.749 202.45C204.899 202.87 204.973 203.346 204.973 203.878ZM217.031 203.92C217.031 204.433 216.937 204.905 216.751 205.334C216.573 205.763 216.321 206.137 215.995 206.454C215.677 206.762 215.299 207.005 214.861 207.182C214.422 207.35 213.951 207.434 213.447 207.434C212.943 207.434 212.471 207.35 212.033 207.182C211.594 207.005 211.216 206.762 210.899 206.454C210.581 206.137 210.329 205.763 210.143 205.334C209.965 204.905 209.877 204.433 209.877 203.92C209.877 203.407 209.965 202.94 210.143 202.52C210.329 202.091 210.581 201.722 210.899 201.414C211.216 201.106 211.594 200.868 212.033 200.7C212.471 200.523 212.943 200.434 213.447 200.434C213.951 200.434 214.422 200.523 214.861 200.7C215.299 200.868 215.677 201.106 215.995 201.414C216.321 201.722 216.573 202.091 216.751 202.52C216.937 202.94 217.031 203.407 217.031 203.92ZM215.659 203.92C215.659 203.603 215.607 203.299 215.505 203.01C215.411 202.721 215.271 202.469 215.085 202.254C214.898 202.03 214.665 201.853 214.385 201.722C214.114 201.591 213.801 201.526 213.447 201.526C213.092 201.526 212.775 201.591 212.495 201.722C212.224 201.853 211.995 202.03 211.809 202.254C211.622 202.469 211.477 202.721 211.375 203.01C211.281 203.299 211.235 203.603 211.235 203.92C211.235 204.237 211.281 204.541 211.375 204.83C211.477 205.119 211.622 205.376 211.809 205.6C211.995 205.824 212.224 206.001 212.495 206.132C212.775 206.263 213.092 206.328 213.447 206.328C213.801 206.328 214.114 206.263 214.385 206.132C214.665 206.001 214.898 205.824 215.085 205.6C215.271 205.376 215.411 205.119 215.505 204.83C215.607 204.541 215.659 204.237 215.659 203.92ZM218.856 202.044C218.856 201.867 218.851 201.638 218.842 201.358C218.832 201.078 218.818 200.831 218.8 200.616H220.046C220.064 200.784 220.078 200.98 220.088 201.204C220.097 201.419 220.102 201.596 220.102 201.736H220.144C220.33 201.344 220.601 201.031 220.956 200.798C221.32 200.555 221.726 200.434 222.174 200.434C222.379 200.434 222.552 200.453 222.692 200.49L222.636 201.708C222.449 201.661 222.248 201.638 222.034 201.638C221.716 201.638 221.441 201.699 221.208 201.82C220.974 201.932 220.778 202.086 220.62 202.282C220.47 202.478 220.358 202.707 220.284 202.968C220.209 203.22 220.172 203.486 220.172 203.766V207.252H218.856V202.044ZM95.5705 227.202C95.3185 227.603 94.9732 227.911 94.5345 228.126C94.1052 228.331 93.6525 228.434 93.1765 228.434C92.6632 228.434 92.2012 228.345 91.7905 228.168C91.3799 227.981 91.0299 227.729 90.7405 227.412C90.4512 227.095 90.2272 226.721 90.0685 226.292C89.9099 225.863 89.8305 225.405 89.8305 224.92C89.8305 224.435 89.9099 223.982 90.0685 223.562C90.2272 223.133 90.4512 222.759 90.7405 222.442C91.0392 222.125 91.3939 221.877 91.8045 221.7C92.2152 221.523 92.6679 221.434 93.1625 221.434C93.7039 221.434 94.1752 221.551 94.5765 221.784C94.9779 222.008 95.2952 222.283 95.5285 222.61H95.5565V217.668H96.8725V228.252H95.5985V227.202H95.5705ZM91.2025 224.92C91.2025 225.228 91.2492 225.527 91.3425 225.816C91.4359 226.105 91.5759 226.362 91.7625 226.586C91.9492 226.81 92.1779 226.992 92.4485 227.132C92.7192 227.263 93.0365 227.328 93.4005 227.328C93.7365 227.328 94.0399 227.263 94.3105 227.132C94.5905 227.001 94.8285 226.829 95.0245 226.614C95.2205 226.39 95.3699 226.133 95.4725 225.844C95.5845 225.555 95.6405 225.251 95.6405 224.934C95.6405 224.617 95.5845 224.313 95.4725 224.024C95.3699 223.735 95.2205 223.478 95.0245 223.254C94.8285 223.03 94.5905 222.853 94.3105 222.722C94.0399 222.591 93.7365 222.526 93.4005 222.526C93.0365 222.526 92.7192 222.591 92.4485 222.722C92.1779 222.853 91.9492 223.03 91.7625 223.254C91.5759 223.478 91.4359 223.735 91.3425 224.024C91.2492 224.313 91.2025 224.612 91.2025 224.92ZM99.1653 223.044C99.1653 222.867 99.1606 222.638 99.1513 222.358C99.1419 222.078 99.1279 221.831 99.1093 221.616H100.355C100.374 221.784 100.388 221.98 100.397 222.204C100.407 222.419 100.411 222.596 100.411 222.736H100.453C100.64 222.344 100.911 222.031 101.265 221.798C101.629 221.555 102.035 221.434 102.483 221.434C102.689 221.434 102.861 221.453 103.001 221.49L102.945 222.708C102.759 222.661 102.558 222.638 102.343 222.638C102.026 222.638 101.751 222.699 101.517 222.82C101.284 222.932 101.088 223.086 100.929 223.282C100.78 223.478 100.668 223.707 100.593 223.968C100.519 224.22 100.481 224.486 100.481 224.766V228.252H99.1653V223.044ZM108.19 223.954C108.19 223.459 108.04 223.095 107.742 222.862C107.443 222.619 107.046 222.498 106.552 222.498C106.178 222.498 105.824 222.573 105.488 222.722C105.161 222.862 104.886 223.044 104.662 223.268L103.962 222.428C104.288 222.12 104.685 221.877 105.152 221.7C105.628 221.523 106.136 221.434 106.678 221.434C107.154 221.434 107.564 221.504 107.91 221.644C108.264 221.775 108.554 221.957 108.778 222.19C109.002 222.423 109.17 222.699 109.282 223.016C109.394 223.333 109.45 223.674 109.45 224.038V226.936C109.45 227.16 109.454 227.398 109.464 227.65C109.482 227.893 109.51 228.093 109.548 228.252H108.358C108.283 227.935 108.246 227.617 108.246 227.3H108.204C107.961 227.655 107.653 227.93 107.28 228.126C106.916 228.322 106.482 228.42 105.978 228.42C105.716 228.42 105.441 228.383 105.152 228.308C104.872 228.243 104.615 228.131 104.382 227.972C104.148 227.813 103.952 227.603 103.794 227.342C103.644 227.081 103.57 226.759 103.57 226.376C103.57 225.872 103.705 225.475 103.976 225.186C104.246 224.887 104.601 224.663 105.04 224.514C105.478 224.355 105.973 224.253 106.524 224.206C107.074 224.159 107.63 224.136 108.19 224.136V223.954ZM107.868 225.088C107.541 225.088 107.2 225.102 106.846 225.13C106.5 225.158 106.183 225.214 105.894 225.298C105.614 225.382 105.38 225.508 105.194 225.676C105.007 225.844 104.914 226.068 104.914 226.348C104.914 226.544 104.951 226.707 105.026 226.838C105.11 226.969 105.217 227.076 105.348 227.16C105.478 227.244 105.623 227.305 105.782 227.342C105.94 227.37 106.104 227.384 106.272 227.384C106.888 227.384 107.359 227.202 107.686 226.838C108.022 226.465 108.19 225.998 108.19 225.438V225.088H107.868ZM112.166 229.386C112.455 229.713 112.814 229.974 113.244 230.17C113.682 230.366 114.13 230.464 114.588 230.464C115.026 230.464 115.395 230.399 115.694 230.268C115.992 230.147 116.23 229.974 116.408 229.75C116.594 229.535 116.725 229.279 116.8 228.98C116.884 228.681 116.926 228.359 116.926 228.014V227.16H116.898C116.655 227.533 116.324 227.818 115.904 228.014C115.484 228.21 115.036 228.308 114.56 228.308C114.056 228.308 113.594 228.219 113.174 228.042C112.763 227.865 112.413 227.622 112.124 227.314C111.834 227.006 111.61 226.647 111.452 226.236C111.293 225.816 111.214 225.368 111.214 224.892C111.214 224.416 111.293 223.968 111.452 223.548C111.61 223.128 111.834 222.764 112.124 222.456C112.413 222.139 112.763 221.891 113.174 221.714C113.584 221.527 114.042 221.434 114.546 221.434C115.022 221.434 115.474 221.537 115.904 221.742C116.342 221.947 116.688 222.26 116.94 222.68H116.968V221.616H118.242V227.916C118.242 228.401 118.181 228.863 118.06 229.302C117.938 229.75 117.733 230.142 117.444 230.478C117.154 230.823 116.776 231.099 116.31 231.304C115.843 231.509 115.264 231.612 114.574 231.612C113.995 231.612 113.412 231.505 112.824 231.29C112.245 231.085 111.746 230.791 111.326 230.408L112.166 229.386ZM112.572 224.864C112.572 225.172 112.618 225.466 112.712 225.746C112.814 226.026 112.959 226.273 113.146 226.488C113.342 226.703 113.575 226.875 113.846 227.006C114.116 227.137 114.424 227.202 114.77 227.202C115.106 227.202 115.414 227.141 115.694 227.02C115.974 226.899 116.212 226.735 116.408 226.53C116.604 226.315 116.753 226.068 116.856 225.788C116.968 225.499 117.024 225.191 117.024 224.864C117.024 224.547 116.968 224.248 116.856 223.968C116.753 223.688 116.599 223.441 116.394 223.226C116.198 223.011 115.96 222.843 115.68 222.722C115.409 222.591 115.106 222.526 114.77 222.526C114.424 222.526 114.116 222.591 113.846 222.722C113.575 222.843 113.342 223.011 113.146 223.226C112.959 223.431 112.814 223.679 112.712 223.968C112.618 224.248 112.572 224.547 112.572 224.864ZM128.123 223.954C128.123 223.459 127.974 223.095 127.675 222.862C127.377 222.619 126.98 222.498 126.485 222.498C126.112 222.498 125.757 222.573 125.421 222.722C125.095 222.862 124.819 223.044 124.595 223.268L123.895 222.428C124.222 222.12 124.619 221.877 125.085 221.7C125.561 221.523 126.07 221.434 126.611 221.434C127.087 221.434 127.498 221.504 127.843 221.644C128.198 221.775 128.487 221.957 128.711 222.19C128.935 222.423 129.103 222.699 129.215 223.016C129.327 223.333 129.383 223.674 129.383 224.038V226.936C129.383 227.16 129.388 227.398 129.397 227.65C129.416 227.893 129.444 228.093 129.481 228.252H128.291C128.217 227.935 128.179 227.617 128.179 227.3H128.137C127.895 227.655 127.587 227.93 127.213 228.126C126.849 228.322 126.415 228.42 125.911 228.42C125.65 228.42 125.375 228.383 125.085 228.308C124.805 228.243 124.549 228.131 124.315 227.972C124.082 227.813 123.886 227.603 123.727 227.342C123.578 227.081 123.503 226.759 123.503 226.376C123.503 225.872 123.639 225.475 123.909 225.186C124.18 224.887 124.535 224.663 124.973 224.514C125.412 224.355 125.907 224.253 126.457 224.206C127.008 224.159 127.563 224.136 128.123 224.136V223.954ZM127.801 225.088C127.475 225.088 127.134 225.102 126.779 225.13C126.434 225.158 126.117 225.214 125.827 225.298C125.547 225.382 125.314 225.508 125.127 225.676C124.941 225.844 124.847 226.068 124.847 226.348C124.847 226.544 124.885 226.707 124.959 226.838C125.043 226.969 125.151 227.076 125.281 227.16C125.412 227.244 125.557 227.305 125.715 227.342C125.874 227.37 126.037 227.384 126.205 227.384C126.821 227.384 127.293 227.202 127.619 226.838C127.955 226.465 128.123 225.998 128.123 225.438V225.088H127.801ZM132.771 221.616C132.79 221.784 132.804 221.975 132.813 222.19C132.823 222.395 132.827 222.568 132.827 222.708H132.869C132.953 222.531 133.065 222.367 133.205 222.218C133.355 222.059 133.523 221.924 133.709 221.812C133.896 221.691 134.101 221.597 134.325 221.532C134.549 221.467 134.783 221.434 135.025 221.434C135.455 221.434 135.823 221.509 136.131 221.658C136.439 221.798 136.696 221.989 136.901 222.232C137.107 222.475 137.256 222.759 137.349 223.086C137.452 223.413 137.503 223.763 137.503 224.136V228.252H136.187V224.57C136.187 224.299 136.164 224.043 136.117 223.8C136.08 223.557 136.005 223.343 135.893 223.156C135.781 222.969 135.627 222.82 135.431 222.708C135.235 222.596 134.983 222.54 134.675 222.54C134.153 222.54 133.723 222.741 133.387 223.142C133.061 223.534 132.897 224.061 132.897 224.724V228.252H131.581V223.044C131.581 222.867 131.577 222.638 131.567 222.358C131.558 222.078 131.544 221.831 131.525 221.616H132.771ZM145.022 227.202C144.77 227.603 144.424 227.911 143.986 228.126C143.556 228.331 143.104 228.434 142.628 228.434C142.114 228.434 141.652 228.345 141.242 228.168C140.831 227.981 140.481 227.729 140.192 227.412C139.902 227.095 139.678 226.721 139.52 226.292C139.361 225.863 139.282 225.405 139.282 224.92C139.282 224.435 139.361 223.982 139.52 223.562C139.678 223.133 139.902 222.759 140.192 222.442C140.49 222.125 140.845 221.877 141.256 221.7C141.666 221.523 142.119 221.434 142.614 221.434C143.155 221.434 143.626 221.551 144.028 221.784C144.429 222.008 144.746 222.283 144.98 222.61H145.008V217.668H146.324V228.252H145.05V227.202H145.022ZM140.654 224.92C140.654 225.228 140.7 225.527 140.794 225.816C140.887 226.105 141.027 226.362 141.214 226.586C141.4 226.81 141.629 226.992 141.9 227.132C142.17 227.263 142.488 227.328 142.852 227.328C143.188 227.328 143.491 227.263 143.762 227.132C144.042 227.001 144.28 226.829 144.476 226.614C144.672 226.39 144.821 226.133 144.924 225.844C145.036 225.555 145.092 225.251 145.092 224.934C145.092 224.617 145.036 224.313 144.924 224.024C144.821 223.735 144.672 223.478 144.476 223.254C144.28 223.03 144.042 222.853 143.762 222.722C143.491 222.591 143.188 222.526 142.852 222.526C142.488 222.526 142.17 222.591 141.9 222.722C141.629 222.853 141.4 223.03 141.214 223.254C141.027 223.478 140.887 223.735 140.794 224.024C140.7 224.313 140.654 224.612 140.654 224.92ZM157.408 227.202C157.156 227.603 156.811 227.911 156.372 228.126C155.943 228.331 155.49 228.434 155.014 228.434C154.501 228.434 154.039 228.345 153.628 228.168C153.218 227.981 152.868 227.729 152.578 227.412C152.289 227.095 152.065 226.721 151.906 226.292C151.748 225.863 151.668 225.405 151.668 224.92C151.668 224.435 151.748 223.982 151.906 223.562C152.065 223.133 152.289 222.759 152.578 222.442C152.877 222.125 153.232 221.877 153.642 221.7C154.053 221.523 154.506 221.434 155 221.434C155.542 221.434 156.013 221.551 156.414 221.784C156.816 222.008 157.133 222.283 157.366 222.61H157.394V217.668H158.71V228.252H157.436V227.202H157.408ZM153.04 224.92C153.04 225.228 153.087 225.527 153.18 225.816C153.274 226.105 153.414 226.362 153.6 226.586C153.787 226.81 154.016 226.992 154.286 227.132C154.557 227.263 154.874 227.328 155.238 227.328C155.574 227.328 155.878 227.263 156.148 227.132C156.428 227.001 156.666 226.829 156.862 226.614C157.058 226.39 157.208 226.133 157.31 225.844C157.422 225.555 157.478 225.251 157.478 224.934C157.478 224.617 157.422 224.313 157.31 224.024C157.208 223.735 157.058 223.478 156.862 223.254C156.666 223.03 156.428 222.853 156.148 222.722C155.878 222.591 155.574 222.526 155.238 222.526C154.874 222.526 154.557 222.591 154.286 222.722C154.016 222.853 153.787 223.03 153.6 223.254C153.414 223.478 153.274 223.735 153.18 224.024C153.087 224.313 153.04 224.612 153.04 224.92ZM161.003 223.044C161.003 222.867 160.998 222.638 160.989 222.358C160.98 222.078 160.966 221.831 160.947 221.616H162.193C162.212 221.784 162.226 221.98 162.235 222.204C162.244 222.419 162.249 222.596 162.249 222.736H162.291C162.478 222.344 162.748 222.031 163.103 221.798C163.467 221.555 163.873 221.434 164.321 221.434C164.526 221.434 164.699 221.453 164.839 221.49L164.783 222.708C164.596 222.661 164.396 222.638 164.181 222.638C163.864 222.638 163.588 222.699 163.355 222.82C163.122 222.932 162.926 223.086 162.767 223.282C162.618 223.478 162.506 223.707 162.431 223.968C162.356 224.22 162.319 224.486 162.319 224.766V228.252H161.003V223.044ZM172.549 224.92C172.549 225.433 172.456 225.905 172.269 226.334C172.092 226.763 171.84 227.137 171.513 227.454C171.196 227.762 170.818 228.005 170.379 228.182C169.941 228.35 169.469 228.434 168.965 228.434C168.461 228.434 167.99 228.35 167.551 228.182C167.113 228.005 166.735 227.762 166.417 227.454C166.1 227.137 165.848 226.763 165.661 226.334C165.484 225.905 165.395 225.433 165.395 224.92C165.395 224.407 165.484 223.94 165.661 223.52C165.848 223.091 166.1 222.722 166.417 222.414C166.735 222.106 167.113 221.868 167.551 221.7C167.99 221.523 168.461 221.434 168.965 221.434C169.469 221.434 169.941 221.523 170.379 221.7C170.818 221.868 171.196 222.106 171.513 222.414C171.84 222.722 172.092 223.091 172.269 223.52C172.456 223.94 172.549 224.407 172.549 224.92ZM171.177 224.92C171.177 224.603 171.126 224.299 171.023 224.01C170.93 223.721 170.79 223.469 170.603 223.254C170.417 223.03 170.183 222.853 169.903 222.722C169.633 222.591 169.32 222.526 168.965 222.526C168.611 222.526 168.293 222.591 168.013 222.722C167.743 222.853 167.514 223.03 167.327 223.254C167.141 223.469 166.996 223.721 166.893 224.01C166.8 224.299 166.753 224.603 166.753 224.92C166.753 225.237 166.8 225.541 166.893 225.83C166.996 226.119 167.141 226.376 167.327 226.6C167.514 226.824 167.743 227.001 168.013 227.132C168.293 227.263 168.611 227.328 168.965 227.328C169.32 227.328 169.633 227.263 169.903 227.132C170.183 227.001 170.417 226.824 170.603 226.6C170.79 226.376 170.93 226.119 171.023 225.83C171.126 225.541 171.177 225.237 171.177 224.92ZM175.69 231.612H174.374V221.616H175.662V222.652H175.704C175.919 222.297 176.232 222.008 176.642 221.784C177.062 221.551 177.548 221.434 178.098 221.434C178.593 221.434 179.041 221.523 179.442 221.7C179.853 221.877 180.203 222.125 180.492 222.442C180.791 222.759 181.02 223.133 181.178 223.562C181.337 223.982 181.416 224.435 181.416 224.92C181.416 225.405 181.337 225.863 181.178 226.292C181.02 226.721 180.796 227.095 180.506 227.412C180.217 227.729 179.867 227.981 179.456 228.168C179.046 228.345 178.584 228.434 178.07 228.434C177.594 228.434 177.146 228.331 176.726 228.126C176.306 227.921 175.975 227.631 175.732 227.258H175.69V231.612ZM180.058 224.92C180.058 224.612 180.012 224.313 179.918 224.024C179.825 223.735 179.685 223.478 179.498 223.254C179.312 223.03 179.078 222.853 178.798 222.722C178.528 222.591 178.21 222.526 177.846 222.526C177.51 222.526 177.202 222.591 176.922 222.722C176.652 222.853 176.418 223.03 176.222 223.254C176.026 223.478 175.872 223.735 175.76 224.024C175.658 224.313 175.606 224.617 175.606 224.934C175.606 225.251 175.658 225.555 175.76 225.844C175.872 226.133 176.026 226.39 176.222 226.614C176.418 226.829 176.652 227.001 176.922 227.132C177.202 227.263 177.51 227.328 177.846 227.328C178.21 227.328 178.528 227.263 178.798 227.132C179.078 226.992 179.312 226.81 179.498 226.586C179.685 226.362 179.825 226.105 179.918 225.816C180.012 225.527 180.058 225.228 180.058 224.92ZM189.267 226.824H189.295L191.129 221.616H192.529L189.309 229.82C189.197 230.1 189.076 230.347 188.945 230.562C188.815 230.786 188.661 230.973 188.483 231.122C188.306 231.281 188.096 231.402 187.853 231.486C187.62 231.57 187.34 231.612 187.013 231.612C186.873 231.612 186.729 231.603 186.579 231.584C186.439 231.575 186.295 231.551 186.145 231.514L186.271 230.352C186.495 230.427 186.715 230.464 186.929 230.464C187.275 230.464 187.531 230.366 187.699 230.17C187.867 229.983 188.021 229.713 188.161 229.358L188.581 228.252L185.739 221.616H187.209L189.267 226.824ZM200.522 224.92C200.522 225.433 200.429 225.905 200.242 226.334C200.065 226.763 199.813 227.137 199.486 227.454C199.169 227.762 198.791 228.005 198.352 228.182C197.913 228.35 197.442 228.434 196.938 228.434C196.434 228.434 195.963 228.35 195.524 228.182C195.085 228.005 194.707 227.762 194.39 227.454C194.073 227.137 193.821 226.763 193.634 226.334C193.457 225.905 193.368 225.433 193.368 224.92C193.368 224.407 193.457 223.94 193.634 223.52C193.821 223.091 194.073 222.722 194.39 222.414C194.707 222.106 195.085 221.868 195.524 221.7C195.963 221.523 196.434 221.434 196.938 221.434C197.442 221.434 197.913 221.523 198.352 221.7C198.791 221.868 199.169 222.106 199.486 222.414C199.813 222.722 200.065 223.091 200.242 223.52C200.429 223.94 200.522 224.407 200.522 224.92ZM199.15 224.92C199.15 224.603 199.099 224.299 198.996 224.01C198.903 223.721 198.763 223.469 198.576 223.254C198.389 223.03 198.156 222.853 197.876 222.722C197.605 222.591 197.293 222.526 196.938 222.526C196.583 222.526 196.266 222.591 195.986 222.722C195.715 222.853 195.487 223.03 195.3 223.254C195.113 223.469 194.969 223.721 194.866 224.01C194.773 224.299 194.726 224.603 194.726 224.92C194.726 225.237 194.773 225.541 194.866 225.83C194.969 226.119 195.113 226.376 195.3 226.6C195.487 226.824 195.715 227.001 195.986 227.132C196.266 227.263 196.583 227.328 196.938 227.328C197.293 227.328 197.605 227.263 197.876 227.132C198.156 227.001 198.389 226.824 198.576 226.6C198.763 226.376 198.903 226.119 198.996 225.83C199.099 225.541 199.15 225.237 199.15 224.92ZM207.023 228.252C207.004 228.084 206.99 227.897 206.981 227.692C206.972 227.477 206.967 227.3 206.967 227.16H206.939C206.771 227.515 206.486 227.818 206.085 228.07C205.693 228.313 205.254 228.434 204.769 228.434C204.34 228.434 203.966 228.364 203.649 228.224C203.341 228.084 203.084 227.893 202.879 227.65C202.683 227.398 202.534 227.109 202.431 226.782C202.338 226.455 202.291 226.105 202.291 225.732V221.616H203.607V225.284C203.607 225.555 203.626 225.816 203.663 226.068C203.71 226.311 203.789 226.525 203.901 226.712C204.013 226.899 204.167 227.048 204.363 227.16C204.559 227.272 204.811 227.328 205.119 227.328C205.651 227.328 206.08 227.132 206.407 226.74C206.734 226.339 206.897 225.807 206.897 225.144V221.616H208.213V226.824C208.213 227.001 208.218 227.23 208.227 227.51C208.236 227.79 208.25 228.037 208.269 228.252H207.023ZM210.495 223.044C210.495 222.867 210.491 222.638 210.481 222.358C210.472 222.078 210.458 221.831 210.439 221.616H211.685C211.704 221.784 211.718 221.98 211.727 222.204C211.737 222.419 211.741 222.596 211.741 222.736H211.783C211.97 222.344 212.241 222.031 212.595 221.798C212.959 221.555 213.365 221.434 213.813 221.434C214.019 221.434 214.191 221.453 214.331 221.49L214.275 222.708C214.089 222.661 213.888 222.638 213.673 222.638C213.356 222.638 213.081 222.699 212.847 222.82C212.614 222.932 212.418 223.086 212.259 223.282C212.11 223.478 211.998 223.707 211.923 223.968C211.849 224.22 211.811 224.486 211.811 224.766V228.252H210.495V223.044ZM222.19 222.694H220.65V228.252H219.334V222.694H218.018V221.616H219.334V220.23C219.334 219.838 219.376 219.479 219.46 219.152C219.553 218.816 219.698 218.527 219.894 218.284C220.099 218.041 220.356 217.85 220.664 217.71C220.981 217.57 221.364 217.5 221.812 217.5C222.129 217.5 222.404 217.533 222.638 217.598L222.484 218.732C222.381 218.704 222.278 218.681 222.176 218.662C222.073 218.643 221.956 218.634 221.826 218.634C221.574 218.634 221.368 218.681 221.21 218.774C221.06 218.858 220.944 218.975 220.86 219.124C220.776 219.273 220.72 219.446 220.692 219.642C220.664 219.829 220.65 220.025 220.65 220.23V221.616H222.19V222.694ZM224.808 228.252H223.492V221.616H224.808V228.252ZM225.032 219.222C225.032 219.465 224.943 219.665 224.766 219.824C224.598 219.983 224.392 220.062 224.15 220.062C223.907 220.062 223.702 219.983 223.534 219.824C223.366 219.656 223.282 219.455 223.282 219.222C223.282 218.979 223.366 218.779 223.534 218.62C223.702 218.452 223.907 218.368 224.15 218.368C224.392 218.368 224.598 218.452 224.766 218.62C224.943 218.779 225.032 218.979 225.032 219.222ZM228.451 228.252H227.135V217.668H228.451V228.252ZM235.601 224.346C235.592 224.085 235.545 223.842 235.461 223.618C235.387 223.385 235.27 223.184 235.111 223.016C234.962 222.848 234.771 222.717 234.537 222.624C234.313 222.521 234.047 222.47 233.739 222.47C233.459 222.47 233.193 222.521 232.941 222.624C232.699 222.717 232.484 222.848 232.297 223.016C232.12 223.184 231.971 223.385 231.849 223.618C231.737 223.842 231.672 224.085 231.653 224.346H235.601ZM236.931 224.878C236.931 224.953 236.931 225.027 236.931 225.102C236.931 225.177 236.927 225.251 236.917 225.326H231.653C231.663 225.606 231.723 225.872 231.835 226.124C231.957 226.367 232.115 226.581 232.311 226.768C232.507 226.945 232.731 227.085 232.983 227.188C233.245 227.291 233.52 227.342 233.809 227.342C234.257 227.342 234.645 227.244 234.971 227.048C235.298 226.852 235.555 226.614 235.741 226.334L236.665 227.076C236.311 227.543 235.891 227.888 235.405 228.112C234.929 228.327 234.397 228.434 233.809 228.434C233.305 228.434 232.839 228.35 232.409 228.182C231.98 228.014 231.611 227.781 231.303 227.482C230.995 227.174 230.753 226.805 230.575 226.376C230.398 225.947 230.309 225.471 230.309 224.948C230.309 224.435 230.393 223.963 230.561 223.534C230.739 223.095 230.981 222.722 231.289 222.414C231.597 222.106 231.961 221.868 232.381 221.7C232.801 221.523 233.254 221.434 233.739 221.434C234.225 221.434 234.663 221.513 235.055 221.672C235.457 221.831 235.793 222.059 236.063 222.358C236.343 222.657 236.558 223.021 236.707 223.45C236.857 223.87 236.931 224.346 236.931 224.878ZM242.353 223.296C242.203 223.053 241.993 222.857 241.723 222.708C241.452 222.549 241.149 222.47 240.813 222.47C240.663 222.47 240.514 222.489 240.365 222.526C240.215 222.554 240.08 222.605 239.959 222.68C239.847 222.745 239.753 222.834 239.679 222.946C239.613 223.049 239.581 223.179 239.581 223.338C239.581 223.618 239.707 223.828 239.959 223.968C240.211 224.099 240.589 224.22 241.093 224.332C241.41 224.407 241.704 224.495 241.975 224.598C242.245 224.701 242.479 224.831 242.675 224.99C242.88 225.139 243.039 225.321 243.151 225.536C243.263 225.751 243.319 226.003 243.319 226.292C243.319 226.684 243.244 227.015 243.095 227.286C242.945 227.557 242.745 227.781 242.493 227.958C242.25 228.126 241.97 228.247 241.653 228.322C241.335 228.397 241.009 228.434 240.673 228.434C240.169 228.434 239.674 228.336 239.189 228.14C238.713 227.944 238.316 227.645 237.999 227.244L238.937 226.446C239.114 226.707 239.357 226.927 239.665 227.104C239.982 227.281 240.327 227.37 240.701 227.37C240.869 227.37 241.027 227.356 241.177 227.328C241.335 227.291 241.475 227.235 241.597 227.16C241.727 227.085 241.83 226.987 241.905 226.866C241.979 226.745 242.017 226.591 242.017 226.404C242.017 226.096 241.867 225.867 241.569 225.718C241.279 225.569 240.85 225.429 240.281 225.298C240.057 225.242 239.828 225.177 239.595 225.102C239.371 225.018 239.165 224.906 238.979 224.766C238.792 224.626 238.638 224.453 238.517 224.248C238.405 224.033 238.349 223.772 238.349 223.464C238.349 223.109 238.419 222.806 238.559 222.554C238.708 222.293 238.899 222.083 239.133 221.924C239.366 221.756 239.632 221.635 239.931 221.56C240.229 221.476 240.537 221.434 240.855 221.434C241.331 221.434 241.788 221.527 242.227 221.714C242.675 221.901 243.02 222.171 243.263 222.526L242.353 223.296Z" fill="#434553"/>
</svg>
