<svg width="252" height="94" viewBox="0 0 252 94" fill="none" xmlns="http://www.w3.org/2000/svg">
<path d="M10.0513 93.1541C4.50011 93.1541 -0.101706 88.6102 0.998969 83.1693C1.58912 80.252 2.43807 77.3907 3.53863 74.623C5.87483 68.7479 9.29905 63.4097 13.6158 58.9131C17.9325 54.4165 23.0572 50.8496 28.6973 48.416C34.3374 45.9825 40.3824 44.73 46.4872 44.73C52.592 44.73 58.637 45.9825 64.2771 48.4161C69.9171 50.8496 75.0418 54.4165 79.3586 58.9131C83.6753 63.4097 87.0995 68.7479 89.4357 74.623C90.5363 77.3907 91.3852 80.252 91.9754 83.1693C93.0761 88.6103 88.4742 93.1541 82.9231 93.1541L10.0513 93.1541Z" fill="#0F1F93"/>
<circle cx="46.4878" cy="19.5489" r="19.3697" fill="#0F1F93"/>
<rect x="122" y="10" width="130" height="27" rx="1.93697" fill="#0F1F93"/>
<rect x="122" y="47" width="113" height="27" rx="1.93697" fill="#D8DCFB"/>
</svg>
