<svg width="281" height="205" viewBox="0 0 281 205" fill="none" xmlns="http://www.w3.org/2000/svg">
<rect x="241" y="5.77808" width="6" height="19.618" transform="rotate(-57.9157 241 5.77808)" fill="#3CD2FD"/>
<rect x="150" y="14.7781" width="8" height="12.7259" transform="rotate(-57.9157 150 14.7781)" fill="#3CD2FD"/>
<rect x="227.29" y="70" width="7" height="12.2906" transform="rotate(89.7267 227.29 70)" fill="#988AFC"/>
<rect x="263" y="57.7822" width="6" height="17.1421" transform="rotate(-57.9697 263 57.7822)" fill="#988AFC"/>
<rect x="52" y="105.269" width="8" height="19.0926" transform="rotate(-65.3222 52 105.269)" fill="#FEC842"/>
<rect x="7.63867" y="19" width="6" height="22.9993" transform="rotate(3.23928 7.63867 19)" fill="#FD729C"/>
<rect x="69" y="53.3684" width="8" height="17.8913" transform="rotate(-17.2202 69 53.3684)" fill="#59E1B7"/>
<rect x="33" y="187.776" width="6" height="17" transform="rotate(-17.2202 33 187.776)" fill="#988AFC"/>
<rect y="134.368" width="8" height="29" transform="rotate(-17.2202 0 134.368)" fill="#FD729C"/>
<rect x="260" y="170.184" width="4" height="16" transform="rotate(-17.2202 260 170.184)" fill="#3CD2FD"/>
<g filter="url(#filter0_d_146_526)">
<rect x="83" y="122" width="117" height="66" rx="4" fill="#F8F8F8"/>
</g>
<path d="M193.568 164.47C194.353 163.664 195.647 163.664 196.432 164.47L197.953 166.03C198.464 166.555 199.222 166.758 199.928 166.559L202.025 165.968C203.107 165.663 204.228 166.311 204.506 167.401L205.042 169.512C205.223 170.223 205.777 170.777 206.488 170.958L208.599 171.494C209.689 171.772 210.337 172.893 210.032 173.975L209.441 176.072C209.242 176.778 209.445 177.536 209.97 178.047L211.53 179.568C212.336 180.353 212.336 181.647 211.53 182.432L209.97 183.953C209.445 184.464 209.242 185.222 209.441 185.928L210.032 188.025C210.337 189.107 209.689 190.228 208.599 190.506L206.488 191.042C205.777 191.223 205.223 191.777 205.042 192.488L204.506 194.599C204.228 195.689 203.107 196.337 202.025 196.032L199.928 195.441C199.222 195.242 198.464 195.445 197.953 195.97L196.432 197.53C195.647 198.336 194.353 198.336 193.568 197.53L192.047 195.97C191.536 195.445 190.778 195.242 190.072 195.441L187.975 196.032C186.893 196.337 185.772 195.689 185.494 194.599L184.958 192.488C184.777 191.777 184.223 191.223 183.512 191.042L181.401 190.506C180.311 190.228 179.663 189.107 179.968 188.025L180.559 185.928C180.758 185.222 180.555 184.464 180.03 183.953L178.47 182.432C177.664 181.647 177.664 180.353 178.47 179.568L180.03 178.047C180.555 177.536 180.758 176.778 180.559 176.072L179.968 173.975C179.663 172.893 180.311 171.772 181.401 171.494L183.512 170.958C184.223 170.777 184.777 170.223 184.958 169.512L185.494 167.401C185.772 166.311 186.893 165.663 187.975 165.968L190.072 166.559C190.778 166.758 191.536 166.555 192.047 166.03L193.568 164.47Z" fill="#27C732"/>
<path d="M189.75 181.75L193.25 185.25L200.25 177.75" stroke="white" stroke-width="1.5" stroke-linecap="round" stroke-linejoin="round"/>
<path d="M98 173C95.7909 173 93.9595 171.192 94.3975 169.026C94.6324 167.865 94.9703 166.727 95.4082 165.625C96.3379 163.287 97.7006 161.163 99.4185 159.373C101.136 157.584 103.176 156.165 105.42 155.196C107.665 154.228 110.071 153.729 112.5 153.729C114.929 153.729 117.335 154.228 119.58 155.196C121.824 156.165 123.864 157.584 125.581 159.373C127.299 161.163 128.662 163.287 129.592 165.625C130.03 166.727 130.368 167.865 130.602 169.026C131.04 171.192 129.209 173 127 173L98 173Z" fill="#525465"/>
<circle cx="112.5" cy="143.708" r="7.70833" fill="#525465"/>
<rect x="137" y="140" width="52" height="8" rx="0.770833" fill="#C9CAD3"/>
<rect x="137" y="151" width="45" height="8" rx="0.770833" fill="#C9CAD3"/>
<defs>
<filter id="filter0_d_146_526" x="79" y="122" width="125" height="74" filterUnits="userSpaceOnUse" color-interpolation-filters="sRGB">
<feFlood flood-opacity="0" result="BackgroundImageFix"/>
<feColorMatrix in="SourceAlpha" type="matrix" values="0 0 0 0 0 0 0 0 0 0 0 0 0 0 0 0 0 0 127 0" result="hardAlpha"/>
<feMorphology radius="2" operator="dilate" in="SourceAlpha" result="effect1_dropShadow_146_526"/>
<feOffset dy="4"/>
<feGaussianBlur stdDeviation="1"/>
<feComposite in2="hardAlpha" operator="out"/>
<feColorMatrix type="matrix" values="0 0 0 0 0 0 0 0 0 0 0 0 0 0 0 0 0 0 0.06 0"/>
<feBlend mode="normal" in2="BackgroundImageFix" result="effect1_dropShadow_146_526"/>
<feBlend mode="normal" in="SourceGraphic" in2="effect1_dropShadow_146_526" result="shape"/>
</filter>
</defs>
</svg>
